<?xml version="1.0" standalone="no"?>
<!DOCTYPE svg PUBLIC "-//W3C//DTD SVG 20010904//EN"
 "http://www.w3.org/TR/2001/REC-SVG-20010904/DTD/svg10.dtd">
<svg version="1.0" xmlns="http://www.w3.org/2000/svg"
 width="192.000000pt" height="192.000000pt" viewBox="0 0 192.000000 192.000000"
 preserveAspectRatio="xMidYMid meet">
<metadata>
Created by potrace 1.11, written by Peter Selinger 2001-2013
</metadata>
<g transform="translate(0.000000,192.000000) scale(0.100000,-0.100000)"
fill="#000000" stroke="none">
<path d="M937 1844 c-1 -1 -31 -4 -67 -7 -210 -20 -401 -114 -551 -272 -43
-46 -109 -131 -109 -140 0 -4 -8 -19 -18 -33 -43 -63 -94 -211 -107 -312 -9
-64 -8 -187 1 -240 4 -25 8 -57 8 -72 1 -16 5 -28 10 -28 4 0 6 -7 3 -15 -4
-8 -1 -17 4 -21 6 -3 9 -15 6 -25 -3 -11 -1 -17 3 -14 5 3 14 -12 20 -32 7
-21 17 -44 22 -50 6 -7 8 -20 4 -28 -3 -9 -2 -13 4 -10 6 3 13 -2 17 -12 4
-10 17 -33 30 -52 12 -18 20 -38 16 -44 -3 -5 -1 -7 5 -3 6 3 21 -8 33 -26 29
-40 134 -140 160 -152 10 -5 19 -13 19 -18 0 -5 -5 -6 -12 -2 -7 4 -8 3 -4 -4
4 -6 14 -8 23 -5 10 4 14 2 10 -4 -4 -6 1 -10 11 -9 9 0 16 -5 14 -12 -1 -8 2
-11 7 -8 9 6 71 -22 82 -37 3 -5 10 -9 15 -10 5 -1 8 -5 7 -9 -2 -4 3 -5 11
-2 7 3 40 -4 73 -15 33 -11 74 -23 91 -26 18 -3 47 -8 65 -11 17 -4 39 -6 47
-6 8 -1 21 -6 29 -12 10 -7 13 -7 9 0 -5 7 19 10 73 10 43 -1 79 3 79 8 0 5 8
2 17 -5 11 -10 14 -10 9 -1 -5 8 0 12 18 12 13 0 26 -3 29 -7 2 -5 2 -2 1 5
-3 9 13 16 29 11 1 0 15 7 32 15 22 12 31 13 37 3 6 -9 8 -9 8 1 0 6 6 12 14
12 8 0 22 7 30 16 9 8 22 14 28 12 7 -3 21 4 32 14 19 17 38 23 61 18 5 -1 7
2 3 6 -5 4 9 18 29 32 52 35 70 51 121 102 24 25 49 44 55 42 7 -2 9 0 5 4 -7
6 44 80 67 96 6 5 6 8 0 8 -6 0 -6 3 0 8 14 9 80 147 95 197 6 22 14 47 17 55
4 8 5 21 4 28 -1 6 2 12 6 12 8 0 10 23 14 155 7 249 -85 477 -264 653 -137
136 -332 231 -507 248 -80 7 -130 11 -133 8z"/>
<path d="M715 91 c-3 -5 -2 -12 3 -15 5 -3 9 1 9 9 0 17 -3 19 -12 6z"/>
</g>
</svg>
